<?xml version="1.0" encoding="UTF-8"?>
<svg version="1.1" xmlns="http://www.w3.org/2000/svg" width="174" height="66">
<path d="M0 0 C57.42 0 114.84 0 174 0 C174 21.78 174 43.56 174 66 C116.58 66 59.16 66 0 66 C0 44.22 0 22.44 0 0 Z " fill="#101110" transform="translate(0,0)"/>
<path d="M0 0 C6.27 0 12.54 0 19 0 C19 19.14 19 38.28 19 58 C14.38 58 9.76 58 5 58 C5 55.69 5 53.38 5 51 C2.8954294 51.00600448 0.79094889 51.05603446 -1.3125 51.125 C-2.48425781 51.14820313 -3.65601563 51.17140625 -4.86328125 51.1953125 C-6.41595703 51.59363281 -6.41595703 51.59363281 -8 52 C-8.99 53.98 -9.98 55.96 -11 58 C-15.62 58 -20.24 58 -25 58 C-24.48834185 51.90749677 -22.53538606 47.18983892 -19.921875 41.69921875 C-19.30919769 40.38459404 -19.30919769 40.38459404 -18.68414307 39.04341125 C-17.38139374 36.25397005 -16.06578301 33.47081291 -14.75 30.6875 C-13.88069003 28.82915959 -13.01219257 26.97043886 -12.14453125 25.11132812 C-8.20114458 16.68495265 -4.18355632 8.31031602 0 0 Z " fill="#FAF7D6" transform="translate(105,4)"/>
<path d="M0 0 C4.60683452 2.30341726 7.91247898 4.92516377 9.65625 9.85546875 C10.92594997 14.30777195 10.96540643 16.17296787 10 21 C5.38 21 0.76 21 -4 21 C-4.66 18.69 -5.32 16.38 -6 14 C-8.40877257 14.11341534 -8.40877257 14.11341534 -11 15 C-12.7536564 17.33942344 -12.7536564 17.33942344 -14 20 C-14.66 20.99 -15.32 21.98 -16 23 C-18.51789991 29.43463309 -18.6290525 36.15442867 -18 43 C-17.34 43.99 -16.68 44.98 -16 46 C-11.80954879 45.58350348 -11.80954879 45.58350348 -8.1875 43.625 C-6.7951102 41.89269626 -6.7951102 41.89269626 -6 39 C-7.98 39 -9.96 39 -12 39 C-11.69230293 37.18667846 -11.37870936 35.37435655 -11.0625 33.5625 C-10.88847656 32.55316406 -10.71445312 31.54382813 -10.53515625 30.50390625 C-10 28 -10 28 -9 27 C-7.21928754 26.91273777 -5.4351686 26.89300959 -3.65234375 26.90234375 C-2.57275391 26.90556641 -1.49316406 26.90878906 -0.38085938 26.91210938 C1.32360352 26.92467773 1.32360352 26.92467773 3.0625 26.9375 C4.77276367 26.94426758 4.77276367 26.94426758 6.51757812 26.95117188 C9.34510351 26.96300253 12.1725264 26.9794859 15 27 C14.79888439 28.79503184 14.5631149 30.5862074 14.3125 32.375 C14.12107422 33.87160156 14.12107422 33.87160156 13.92578125 35.3984375 C13 38 13 38 10.4921875 39.21582031 C9.66976562 39.47459961 8.84734375 39.73337891 8 40 C6.7203731 42.17369234 6.7203731 42.17369234 6 44.75 C3.84519303 50.72312493 1.58787886 54.43648986 -4 57.8125 C-9.52771491 60.00055382 -15.07827324 60.75329386 -21 60 C-26.70498418 57.0936873 -30.09638722 53.53011578 -32.25 47.5 C-34.79669918 35.1600849 -32.84965475 22.82751062 -26.25 12.0625 C-19.61829874 2.90603937 -11.19915002 -1.33091348 0 0 Z " fill="#F7F5D4" transform="translate(39,3)"/>
<path d="M0 0 C2.70860665 -0.05429278 5.41610901 -0.09381211 8.125 -0.125 C8.88554687 -0.14175781 9.64609375 -0.15851563 10.4296875 -0.17578125 C15.03270731 -0.21546246 18.66464004 0.24092423 23 2 C23 2.66 23 3.32 23 4 C23.598125 4.20625 24.19625 4.4125 24.8125 4.625 C28.07517173 6.67582223 28.73608604 8.33464951 30 12 C30.88920575 21.74022302 30.10770764 30.35834648 23.84765625 38.171875 C18.88792025 43.07918251 12.70255605 45.88820785 5.765625 46.09765625 C4.60546875 46.08605469 3.4453125 46.07445312 2.25 46.0625 C1.07953125 46.05347656 -0.0909375 46.04445312 -1.296875 46.03515625 C-2.18890625 46.02355469 -3.0809375 46.01195312 -4 46 C-4 46.66 -4 47.32 -4 48 C-2.02 48.66 -0.04 49.32 2 50 C1.67 52.64 1.34 55.28 1 58 C-3.62 58 -8.24 58 -13 58 C-12.53571074 52.27376585 -11.95823049 47.41393136 -10 42 C-8.78256861 37.0996103 -7.81770957 32.13557002 -6.81640625 27.1875 C-6.61080078 26.17429687 -6.40519531 25.16109375 -6.19335938 24.1171875 C-5.77293947 22.03981856 -5.35626872 19.96168732 -4.94335938 17.8828125 C-3.68776011 11.73389648 -2.11202617 5.91121026 0 0 Z " fill="#FAF7D5" transform="translate(139,4)"/>
<path d="M0 0 C4.61928061 4.86240064 5.12422355 8.41615196 5 15 C0.71 15 -3.58 15 -8 15 C-8.66 13.02 -9.32 11.04 -10 9 C-11.65 9.66 -13.3 10.32 -15 11 C-14.85965829 16.61366832 -12.42232817 19.13692992 -8.78515625 23.04296875 C-3.0958571 29.28003412 -1.63176972 34.67912212 -1.72265625 43.05078125 C-2.09926309 47.0555441 -3.24023521 49.09498443 -6 52 C-12.53699692 56.93609971 -17.9692791 57.80755853 -26 57 C-29.74837411 55.75953087 -32.30797453 53.78131908 -34.9375 50.8125 C-36.47004776 46.75575592 -36.19357668 43.32321249 -36 39 C-31.71 39 -27.42 39 -23 39 C-22.67 40.65 -22.34 42.3 -22 44 C-20.68 44 -19.36 44 -18 44 C-16.8655905 41.39865016 -16.8655905 41.39865016 -17 38 C-18.51311551 35.81788089 -20.24024862 34.00491094 -22.078125 32.08984375 C-27.83357306 25.83137889 -30.33374449 19.89499564 -30.2109375 11.43359375 C-29.79234629 6.60429144 -27.56485228 4.52801408 -24.125 1.3125 C-16.48170404 -4.34353901 -8.35940285 -4.75338593 0 0 Z " fill="#FAF7D5" transform="translate(84,6)"/>
<path d="M0 0 C1.4370809 -0.05422947 2.87475462 -0.09289723 4.3125 -0.125 C5.11300781 -0.14820313 5.91351563 -0.17140625 6.73828125 -0.1953125 C9 0 9 0 12 2 C13.06683835 7.81531492 12.26225729 13.04620189 9 18 C6.91109409 20.63383789 5.30243195 21.43061518 2 22 C2.14308594 21.15179688 2.28617188 20.30359375 2.43359375 19.4296875 C3.00031727 15.99807888 3.5362701 12.56303536 4.0625 9.125 C4.32740234 7.39636719 4.32740234 7.39636719 4.59765625 5.6328125 C4.73042969 4.76398437 4.86320313 3.89515625 5 3 C3.35 2.67 1.7 2.34 0 2 C0 1.34 0 0.68 0 0 Z " fill="#1D1E1A" transform="translate(143,16)"/>
<path d="M0 0 C0.33 0 0.66 0 1 0 C1.02888146 3.31248187 1.04675799 6.62493167 1.0625 9.9375 C1.07087891 10.88302734 1.07925781 11.82855469 1.08789062 12.80273438 C1.09111328 13.70185547 1.09433594 14.60097656 1.09765625 15.52734375 C1.10289307 16.35999756 1.10812988 17.19265137 1.11352539 18.05053711 C1 20 1 20 0 21 C-2.67058851 21.14115161 -5.32432238 21.04247107 -8 21 C-7.35307794 18.1679807 -6.48786311 15.57087146 -5.37109375 12.890625 C-5.05849609 12.13652344 -4.74589844 11.38242187 -4.42382812 10.60546875 C-4.09833984 9.82816406 -3.77285156 9.05085938 -3.4375 8.25 C-3.10814453 7.45722656 -2.77878906 6.66445313 -2.43945312 5.84765625 C-1.62880284 3.89739615 -0.81473514 1.94855716 0 0 Z " fill="#1E1F1C" transform="translate(110,22)"/>
<path d="M0 0 C0.99 0.33 1.98 0.66 3 1 C4.89212737 1.22179785 6.78884472 1.40614015 8.6875 1.5625 C9.68136719 1.64628906 10.67523438 1.73007812 11.69921875 1.81640625 C12.83810547 1.90728516 12.83810547 1.90728516 14 2 C14 2.33 14 2.66 14 3 C9.71 3 5.42 3 1 3 C1 4.98 1 6.96 1 9 C0.67 9 0.34 9 0 9 C-0.87890625 2.84765625 -0.87890625 2.84765625 -1 1 C-0.67 0.67 -0.34 0.34 0 0 Z " fill="#606053" transform="translate(47,42)"/>
</svg>
