<?xml version="1.0" encoding="UTF-8"?>
<!DOCTYPE svg PUBLIC "-//W3C//DTD SVG 1.1//EN" "http://www.w3.org/Graphics/SVG/1.1/DTD/svg11.dtd">
<svg xmlns="http://www.w3.org/2000/svg" version="1.1" width="32px" height="32px" style="shape-rendering:geometricPrecision; text-rendering:geometricPrecision; image-rendering:optimizeQuality; fill-rule:evenodd; clip-rule:evenodd" xmlns:xlink="http://www.w3.org/1999/xlink">
<g><path style="opacity:1" fill="#0f1413" d="M -0.5,-0.5 C 10.1667,-0.5 20.8333,-0.5 31.5,-0.5C 31.5,7.83333 31.5,16.1667 31.5,24.5C 30.123,25.4962 28.623,26.4962 27,27.5C 25.2491,25.788 24.5825,23.788 25,21.5C 25.8835,24.6531 27.0502,24.9865 28.5,22.5C 29.8333,18.1667 29.8333,13.8333 28.5,9.5C 26.7775,11.2528 25.2775,13.2528 24,15.5C 22.6924,13.3586 21.1924,11.3586 19.5,9.5C 17.9373,10.9448 16.604,12.6115 15.5,14.5C 14.6751,12.6404 13.6751,10.9738 12.5,9.5C 11.4324,8.56552 10.099,8.23219 8.5,8.5C 8.84316,10.4832 8.17649,11.8166 6.5,12.5C 5.20577,11.7101 4.0391,10.7101 3,9.5C 2.50115,13.4862 2.33449,17.4862 2.5,21.5C 2.5,21.8333 2.5,22.1667 2.5,22.5C 1.77842,22.0825 1.27842,21.4158 1,20.5C 0.617425,21.056 0.117425,21.3893 -0.5,21.5C -0.5,14.1667 -0.5,6.83333 -0.5,-0.5 Z"/></g>
<g><path style="opacity:1" fill="#494a4a" d="M 28.5,9.5 C 29.8333,13.8333 29.8333,18.1667 28.5,22.5C 27.8333,22.5 27.5,22.1667 27.5,21.5C 28.4834,17.7016 28.8168,13.7016 28.5,9.5 Z"/></g>
<g><path style="opacity:1" fill="#cfcfcf" d="M 6.5,12.5 C 7.41202,14.5952 8.57868,16.5952 10,18.5C 10.3333,18.1667 10.6667,17.8333 11,17.5C 11.2784,18.4158 11.7784,19.0825 12.5,19.5C 12.4827,21.0281 11.816,21.5281 10.5,21C 8.46115,19.0737 6.79448,16.907 5.5,14.5C 5.44001,13.9569 5.10667,13.6236 4.5,13.5C 3.83236,16.3056 3.16569,18.9723 2.5,21.5C 2.33449,17.4862 2.50115,13.4862 3,9.5C 4.0391,10.7101 5.20577,11.7101 6.5,12.5 Z"/></g>
<g><path style="opacity:1" fill="#333736" d="M 12.5,9.5 C 11.5,9.5 10.5,9.5 9.5,9.5C 10.2759,13.0525 11.6092,16.3858 13.5,19.5C 13.1667,19.5 12.8333,19.5 12.5,19.5C 11.7784,19.0825 11.2784,18.4158 11,17.5C 10.6667,17.8333 10.3333,18.1667 10,18.5C 8.57868,16.5952 7.41202,14.5952 6.5,12.5C 8.17649,11.8166 8.84316,10.4832 8.5,8.5C 10.099,8.23219 11.4324,8.56552 12.5,9.5 Z"/></g>
<g><path style="opacity:1" fill="#6b6c6c" d="M 21.5,14.5 C 20.6829,16.9686 20.1829,19.6353 20,22.5C 19.5065,20.8659 19.3398,19.1992 19.5,17.5C 19.6495,16.448 19.4828,15.448 19,14.5C 18.3918,16.0664 17.5585,17.3998 16.5,18.5C 16.7553,15.9837 17.5886,13.6504 19,11.5C 20.045,12.3734 20.8783,13.3734 21.5,14.5 Z"/></g>
<g><path style="opacity:1" fill="#7b7c7b" d="M 5.5,14.5 C 5.09843,17.4766 4.09843,20.1433 2.5,22.5C 2.5,22.1667 2.5,21.8333 2.5,21.5C 3.16569,18.9723 3.83236,16.3056 4.5,13.5C 5.10667,13.6236 5.44001,13.9569 5.5,14.5 Z"/></g>
<g><path style="opacity:1" fill="#101413" d="M 27.5,21.5 C 27.5,22.1667 27.8333,22.5 28.5,22.5C 27.0502,24.9865 25.8835,24.6531 25,21.5C 24.5825,23.788 25.2491,25.788 27,27.5C 28.623,26.4962 30.123,25.4962 31.5,24.5C 31.5,26.8333 31.5,29.1667 31.5,31.5C 20.8333,31.5 10.1667,31.5 -0.5,31.5C -0.5,28.1667 -0.5,24.8333 -0.5,21.5C 0.117425,21.3893 0.617425,21.056 1,20.5C 1.27842,21.4158 1.77842,22.0825 2.5,22.5C 4.09843,20.1433 5.09843,17.4766 5.5,14.5C 6.79448,16.907 8.46115,19.0737 10.5,21C 11.816,21.5281 12.4827,21.0281 12.5,19.5C 12.8333,19.5 13.1667,19.5 13.5,19.5C 13.795,21.4233 14.6283,23.0899 16,24.5C 16.6701,21.8261 17.8368,19.4927 19.5,17.5C 19.3398,19.1992 19.5065,20.8659 20,22.5C 20.1829,19.6353 20.6829,16.9686 21.5,14.5C 23.5257,18.2948 25.3591,17.9614 27,13.5C 27.4974,16.146 27.6641,18.8127 27.5,21.5 Z"/></g>
<g><path style="opacity:1" fill="#d6d7d6" d="M 12.5,9.5 C 13.6751,10.9738 14.6751,12.6404 15.5,14.5C 16.604,12.6115 17.9373,10.9448 19.5,9.5C 21.1924,11.3586 22.6924,13.3586 24,15.5C 25.2775,13.2528 26.7775,11.2528 28.5,9.5C 28.8168,13.7016 28.4834,17.7016 27.5,21.5C 27.6641,18.8127 27.4974,16.146 27,13.5C 25.3591,17.9614 23.5257,18.2948 21.5,14.5C 20.8783,13.3734 20.045,12.3734 19,11.5C 17.5886,13.6504 16.7553,15.9837 16.5,18.5C 17.5585,17.3998 18.3918,16.0664 19,14.5C 19.4828,15.448 19.6495,16.448 19.5,17.5C 17.8368,19.4927 16.6701,21.8261 16,24.5C 14.6283,23.0899 13.795,21.4233 13.5,19.5C 11.6092,16.3858 10.2759,13.0525 9.5,9.5C 10.5,9.5 11.5,9.5 12.5,9.5 Z"/></g>
<g><path style="opacity:1" fill="#363836" d="M 11.5,11.5 C 13.2726,12.3143 13.7726,13.6476 13,15.5C 12.2086,14.255 11.7086,12.9217 11.5,11.5 Z"/></g>
<g><path style="opacity:1" fill="#393a3a" d="M 16.5,18.5 C 16.6309,19.3764 16.2975,20.0431 15.5,20.5C 14.1266,18.1916 14.4599,17.5249 16.5,18.5 Z"/></g>
</svg>
